{
	"asset":{
		"generator":"Khronos glTF Blender I/O v4.2.70",
		"version":"2.0"
	},
	"scene":0,
	"scenes":[
		{
			"name":"Scene",
			"nodes":[
				0
			]
		}
	],
	"nodes":[
		{
			"mesh":0,
			"name":"3D MODEL",
			"rotation":[
				0.6330244541168213,
				-0.3108692169189453,
				0.2203056663274765,
				0.6738738417625427
			],
			"scale":[
				0.9984179735183716,
				1.0010600090026855,
				0.757606029510498
			],
			"translation":[
				-43.85169982910156,
				0.035686999559402466,
				-101.6729965209961
			]
		}
	],
	"materials":[
		{
			"doubleSided":true,
			"name":"Material.001",
			"pbrMetallicRoughness":{
				"baseColorFactor":[
					0.800000011920929,
					0.800000011920929,
					0.800000011920929,
					1
				],
				"metallicFactor":0,
				"roughnessFactor":0.5
			}
		}
	],
	"meshes":[
		{
			"name":"3D MODEL",
			"primitives":[
				{
					"attributes":{
						"POSITION":0,
						"NORMAL":1
					},
					"indices":2,
					"material":0
				}
			]
		}
	],
	"accessors":[
		{
			"bufferView":0,
			"componentType":5126,
			"count":11144,
			"max":[
				130.63778686523438,
				150,
				-17.099626541137695
			],
			"min":[
				36.137779235839844,
				0,
				-230.56813049316406
			],
			"type":"VEC3"
		},
		{
			"bufferView":1,
			"componentType":5126,
			"count":11144,
			"type":"VEC3"
		},
		{
			"bufferView":2,
			"componentType":5123,
			"count":19140,
			"type":"SCALAR"
		}
	],
	"bufferViews":[
		{
			"buffer":0,
			"byteLength":133728,
			"byteOffset":0,
			"target":34962
		},
		{
			"buffer":0,
			"byteLength":133728,
			"byteOffset":133728,
			"target":34962
		},
		{
			"buffer":0,
			"byteLength":38280,
			"byteOffset":267456,
			"target":34963
		}
	],
	"buffers":[
		{
			"byteLength":305736,
			"uri":"A50Product.bin"
		}
	]
}
