{
	"asset":{
		"generator":"Khronos glTF Blender I/O v4.2.70",
		"version":"2.0"
	},
	"scene":0,
	"scenes":[
		{
			"name":"Scene",
			"nodes":[
				0
			]
		}
	],
	"nodes":[
		{
			"mesh":0,
			"name":"3D MODEL",
			"rotation":[
				0.6673404574394226,
				-0.18797573447227478,
				0.2299794852733612,
				0.6829577684402466
			],
			"translation":[
				3.738837718963623,
				3.2180137634277344,
				-68.2624740600586
			]
		}
	],
	"meshes":[
		{
			"name":"3D MODEL",
			"primitives":[
				{
					"attributes":{
						"POSITION":0,
						"NORMAL":1
					},
					"indices":2
				}
			]
		}
	],
	"accessors":[
		{
			"bufferView":0,
			"componentType":5126,
			"count":11144,
			"max":[
				130.63778686523438,
				150,
				-17.099626541137695
			],
			"min":[
				36.137779235839844,
				0,
				-230.56813049316406
			],
			"type":"VEC3"
		},
		{
			"bufferView":1,
			"componentType":5126,
			"count":11144,
			"type":"VEC3"
		},
		{
			"bufferView":2,
			"componentType":5123,
			"count":19140,
			"type":"SCALAR"
		}
	],
	"bufferViews":[
		{
			"buffer":0,
			"byteLength":133728,
			"byteOffset":0,
			"target":34962
		},
		{
			"buffer":0,
			"byteLength":133728,
			"byteOffset":133728,
			"target":34962
		},
		{
			"buffer":0,
			"byteLength":38280,
			"byteOffset":267456,
			"target":34963
		}
	],
	"buffers":[
		{
			"byteLength":305736,
			"uri":"BlenderProduct.bin"
		}
	]
}
